#!OML:ASF F:\VICON\USERDATA\INSTALL\rory3\rory3.ASF
:FULLY-SPECIFIED
:DEGREES
4746
root -1.64397 17.1172 -4.10721 6.1647 21.8239 0.0101527
lowerback 12.1551 -4.05494 -3.57903
upperback 0.921709 -5.62653 3.82557
thorax -5.08696 -2.65837 6.96041
lowerneck -20.3857 -7.81531 -12.2991
upperneck 19.3045 -9.73316 11.1507
head 10.7672 -4.1174 4.50544
rclavicle -3.79679e-014 1.86858e-014
rhumerus -15.5799 8.71004 -69.335
rradius 133.653
rwrist 21.3311
rhand -16.1243 20.7221
rfingers 7.12502
rthumb 10.0802 -9.01647
lclavicle -3.79679e-014 1.86858e-014
lhumerus 6.79966 -25.5622 86.895
lradius 121.191
lwrist -15.8032
lhand -6.63782 7.71054
lfingers 7.12502
lthumb 19.2191 36.7809
rfemur -39.8278 -2.31907 1.34037
rtibia 42.3331
rfoot 0.812445 -12.2369
rtoes 3.86137
lfemur 0.576698 0.814402 -12.1646
ltibia 31.9657
lfoot -20.3043 2.30999
ltoes -37.801
4747
root -1.56864 17.1735 -4.19132 6.09186 21.2936 0.216436
lowerback 12.27 -3.97239 -3.91778
upperback 0.877611 -5.57099 3.7517
thorax -5.18044 -2.6196 7.07981
lowerneck -20.1777 -7.95088 -12.36
upperneck 19.3419 -9.96317 11.2601
head 10.7836 -4.22118 4.51977
rclavicle -5.4964e-014 -9.14409e-015
rhumerus -15.1698 9.16223 -69.4439
rradius 133.746
rwrist 21.9329
rhand -16.3269 20.2631
rfingers 7.12502
rthumb 9.88475 -9.48481
lclavicle -5.4964e-014 -9.14409e-015
lhumerus 6.47554 -25.3446 87.0713
lradius 121.199
lwrist -15.8151
lhand -6.5088 8.0247
lfingers 7.12502
lthumb 19.3432 37.0827
rfemur -40.2344 -3.32199 2.36541
rtibia 44.2508
rfoot -0.224103 -11.8487
rtoes 4.6463
lfemur 0.564679 1.24923 -12.8152
ltibia 31.9725
lfoot -19.6897 2.02363
ltoes -37.4669
4748
root -1.49204 17.2439 -4.27031 6.03777 20.794 0.274145
lowerback 11.7708 -3.90221 -4.09735
upperback 1.22376 -5.49145 3.73649
thorax -4.53293 -2.61295 7.08137
lowerneck -20.4282 -8.18326 -12.4448
upperneck 19.2098 -10.259 11.4033
head 10.8365 -4.33796 4.52614
rclavicle -1.0138e-014 -1.70955e-014
rhumerus -14.1612 9.40352 -69.481
rradius 133.762
rwrist 22.1227
rhand -16.3851 19.9864
rfingers 7.12502
rthumb 9.82868 -9.76419
lclavicle -1.0138e-014 -1.70955e-014
lhumerus 6.76318 -25.13 87.0247
lradius 121.171
lwrist -15.9673
lhand -6.5553 7.99619
lfingers 7.12502
lthumb 19.2985 37.0586
rfemur -40.6703 -4.06093 3.42174
rtibia 46.0533
rfoot -1.22551 -11.9278
rtoes 4.2782
lfemur 0.434586 1.74012 -13.2325
ltibia 32.0514
lfoot -18.8139 1.41793
ltoes -37.1132
4749
root -1.41777 17.3178 -4.341 5.94727 20.3707 0.329962
lowerback 12.1898 -3.90252 -4.14347
upperback 0.921878 -5.51276 3.67934
thorax -5.08334 -2.5923 7.11085
lowerneck -20.3747 -8.28827 -12.5309
upperneck 19.6448 -10.4306 11.3991
head 11.0146 -4.4213 4.51712
rclavicle 2.21645e-014 -4.25399e-014
rhumerus -14.2241 10.1263 -69.7931
rradius 133.856
rwrist 21.9733
rhand -16.3387 19.8456
rfingers 7.12502
rthumb 9.87336 -9.90289
lclavicle 2.21645e-014 -4.25399e-014
lhumerus 5.76294 -24.8667 87.4605
lradius 121.238
lwrist -16.0131
lhand -6.54886 7.63155
lfingers 7.12502
lthumb 19.3047 36.6934
rfemur -40.8648 -4.6283 4.42148
rtibia 47.706
rfoot -2.35955 -12.1984
rtoes 3.51348
lfemur 0.263995 2.3026 -13.5266
ltibia 32.2741
lfoot -17.8259 0.471625
ltoes -36.8588
4750
root -1.34466 17.3864 -4.40399 5.83843 20.0911 0.358754
lowerback 11.8295 -3.92771 -4.15828
upperback 1.08829 -5.54366 3.60178
thorax -4.70905 -2.62835 6.99326
lowerneck -20.3071 -8.45772 -12.6264
upperneck 19.6453 -10.6969 11.5793
head 11.0573 -4.53118 4.55271
rclavicle 5.92378e-014 0
rhumerus -13.7402 10.4397 -70.0837
rradius 133.708
rwrist 21.8494
rhand -16.4717 19.6299
rfingers 7.12502
rthumb 9.74512 -10.1246
lclavicle 5.92378e-014 0
lhumerus 5.56663 -24.7442 87.6187
lradius 121.195
lwrist -15.8337
lhand -6.32171 7.55313
lfingers 7.12502
lthumb 19.5231 36.5929
rfemur -40.7473 -5.25391 5.45949
rtibia 49.1988
rfoot -3.58149 -12.2317
rtoes 3.57961
lfemur -0.0199326 2.84654 -13.6789
ltibia 32.6536
lfoot -16.6529 -0.761723
ltoes -36.592
4751
root -1.27526 17.4614 -4.46348 5.75012 19.9888 0.293738
lowerback 11.8195 -4.01253 -4.10399
upperback 0.955765 -5.64932 3.61817
thorax -4.832 -2.67377 7.00186
lowerneck -19.9482 -8.51803 -12.7034
upperneck 19.6974 -10.8135 11.5972
head 11.0314 -4.60055 4.55935
rclavicle -3.67752e-015 -1.35174e-014
rhumerus -13.699 10.8951 -70.3817
rradius 133.378
rwrist 21.7219
rhand -16.9324 19.7166
rfingers 7.12502
rthumb 9.30054 -10.0583
lclavicle -3.67752e-015 -1.35174e-014
lhumerus 4.8263 -24.6603 88.1286
lradius 121.208
lwrist -15.7604
lhand -6.22562 7.67161
lfingers 7.12502
lthumb 19.6155 36.702
rfemur -40.5326 -5.84728 6.51725
rtibia 50.5053
rfoot -4.57045 -12.1078
rtoes 3.28014
lfemur -0.509628 3.41155 -13.6053
ltibia 33.1997
lfoot -15.2782 -2.37763
ltoes -36.294
4752
root -1.20754 17.5438 -4.51901 5.65356 20.055 0.217119
lowerback 11.547 -4.14013 -3.99324
upperback 1.02869 -5.79901 3.60206
thorax -4.5947 -2.7623 6.90872
lowerneck -19.7432 -8.60112 -12.6559
upperneck 19.6265 -10.9795 11.6531
head 10.9912 -4.67416 4.54518
rclavicle -8.41853e-014 5.80451e-014
rhumerus -13.5229 11.1335 -70.7556
rradius 132.919
rwrist 21.7411
rhand -17.7207 20.1848
rfingers 7.12502
rthumb 8.53988 -9.62252
lclavicle -8.41853e-014 5.80451e-014
lhumerus 4.43995 -24.6805 88.4161
lradius 121.17
lwrist -15.5859
lhand -6.29715 7.85258
lfingers 7.12502
lthumb 19.5467 36.89
rfemur -40.2069 -6.43388 7.48694
rtibia 51.5919
rfoot -4.97938 -11.8695
rtoes 2.89494
lfemur -1.11474 3.98774 -13.4142
ltibia 33.8865
lfoot -13.6095 -4.33917
ltoes -35.6794
4753
root -1.14434 17.6253 -4.57032 5.52736 20.2741 0.211826
lowerback 11.7807 -4.30297 -3.89726
upperback 0.802538 -6.01091 3.56882
thorax -4.94677 -2.8494 6.88659
lowerneck -19.4767 -8.69255 -12.6027
upperneck 19.8824 -11.1609 11.5552
head 11.0503 -4.77076 4.47774
rclavicle 3.62782e-014 -2.0276e-014
rhumerus -13.9746 11.469 -71.2712
rradius 132.673
rwrist 21.6046
rhand -17.8812 20.3187
rfingers 7.12502
rthumb 8.38498 -9.49484
lclavicle 3.62782e-014 -2.0276e-014
lhumerus 3.49519 -24.7502 88.8748
lradius 121.158
lwrist -15.4373
lhand -6.4809 7.96407
lfingers 7.12502
lthumb 19.37 37.0193
rfemur -39.6961 -7.00923 8.30322
rtibia 52.4705
rfoot -5.02878 -11.4836
rtoes 2.69776
lfemur -1.78563 4.52841 -13.1966
ltibia 34.6462
lfoot -11.5902 -6.44936
ltoes -34.6859
4754
root -1.08578 17.7064 -4.61534 5.33754 20.6383 0.169224
lowerback 11.4371 -4.45576 -3.81753
upperback 1.02138 -6.19553 3.56679
thorax -4.50734 -2.96594 6.81074
lowerneck -19.4264 -8.88049 -12.6991
upperneck 19.7909 -11.4347 11.7052
head 11.0627 -4.88787 4.49834
rclavicle 2.29596e-014 -2.46493e-014
rhumerus -13.8194 11.3697 -71.65
rradius 132.397
rwrist 21.2577
rhand -17.3881 20.2086
rfingers 7.12502
rthumb 8.8608 -9.58537
lclavicle 2.29596e-014 -2.46493e-014
lhumerus 3.34842 -24.9177 89.094
lradius 120.992
lwrist -15.2327
lhand -6.67238 7.89666
lfingers 7.12502
lthumb 19.1859 36.9703
rfemur -39.0093 -7.50085 9.07027
rtibia 53.1684
rfoot -5.07275 -10.9665
rtoes 2.45185
lfemur -2.49714 4.9069 -12.8608
ltibia 35.4604
lfoot -9.3143 -8.62894
ltoes -34.0776
4755
root -1.0306 17.7836 -4.65496 5.13635 21.136 0.139441
lowerback 11.5371 -4.66549 -3.805
upperback 0.987285 -6.47122 3.634
thorax -4.55346 -3.09986 6.92271
lowerneck -19.5568 -9.00503 -12.782
upperneck 20.1305 -11.5972 11.6662
head 11.2387 -4.96343 4.46997
rclavicle 2.26615e-014 -1.55052e-014
rhumerus -13.9591 11.4277 -71.9366
rradius 131.871
rwrist 21.3914
rhand -17.3712 20.5225
rfingers 7.12502
rthumb 8.87713 -9.27079
lclavicle 2.26615e-014 -1.55052e-014
lhumerus 2.85819 -24.8877 89.5285
lradius 120.764
lwrist -15.2901
lhand -6.92854 7.69672
lfingers 7.12502
lthumb 18.9396 36.7946
rfemur -38.2236 -8.03134 9.77743
rtibia 53.7236
rfoot -4.83281 -10.3641
rtoes 1.64697
lfemur -3.24779 5.16375 -12.4917
ltibia 36.32
lfoot -6.99648 -10.7494
ltoes -34.0379
4756
root -0.977079 17.8548 -4.69592 4.98425 21.8192 0.0650276
lowerback 11.5922 -4.93994 -3.67573
upperback 0.938194 -6.81745 3.68494
thorax -4.59556 -3.27075 6.95732
lowerneck -19.6347 -9.12489 -12.8026
upperneck 20.3858 -11.7684 11.6213
head 11.371 -5.04156 4.42688
rclavicle -4.02539e-014 -1.23246e-014
rhumerus -14.1473 11.4625 -72.253
rradius 131.316
rwrist 21.6999
rhand -17.692 20.8108
rfingers 7.12502
rthumb 8.56758 -8.99538
lclavicle -4.02539e-014 -1.23246e-014
lhumerus 2.41637 -24.8812 89.8732
lradius 120.545
lwrist -15.5271
lhand -7.11834 7.65078
lfingers 7.12502
lthumb 18.757 36.7664
rfemur -37.4345 -8.71772 10.5091
rtibia 54.1507
rfoot -4.39523 -9.62277
rtoes 0.467848
lfemur -4.15035 5.25951 -12.0715
ltibia 37.1829
lfoot -4.92052 -12.5936
ltoes -33.2207
4757
root -0.923379 17.9192 -4.73419 4.7359 22.5848 -0.0577655
lowerback 11.7791 -5.20972 -3.50837
upperback 0.839578 -7.15193 3.77601
thorax -4.76474 -3.42961 7.03271
lowerneck -19.5651 -9.23194 -12.8495
upperneck 20.527 -11.9075 11.5337
head 11.4268 -5.11881 4.37942
rclavicle -1.43125e-013 1.86858e-014
rhumerus -14.5488 11.4773 -72.4534
rradius 131.01
rwrist 21.786
rhand -17.7933 20.9434
rfingers 7.12502
rthumb 8.46983 -8.86676
lclavicle -1.43125e-013 1.86858e-014
lhumerus 1.78517 -24.8755 90.3727
lradius 120.387
lwrist -15.7047
lhand -7.41812 7.44444
lfingers 7.12502
lthumb 18.4686 36.5877
rfemur -36.5255 -9.42042 11.2345
rtibia 54.4745
rfoot -4.06392 -8.82032
rtoes -0.616641
lfemur -4.9405 5.06216 -11.6247
ltibia 38.031
lfoot -3.34626 -13.8981
ltoes -31.4066
4758
root -0.866287 17.9749 -4.76743 4.43889 23.2518 -0.165794
lowerback 12.0432 -5.50396 -3.22896
upperback 0.700581 -7.5092 3.76138
thorax -5.04599 -3.59664 6.9526
lowerneck -19.5308 -9.29634 -12.7315
upperneck 20.7452 -12.0202 11.3668
head 11.4969 -5.17834 4.2808
rclavicle -1.10723e-013 1.59028e-015
rhumerus -15.1115 11.5145 -72.815
rradius 130.748
rwrist 21.819
rhand -17.8571 21.1151
rfingers 7.12502
rthumb 8.40825 -8.69752
lclavicle -1.10723e-013 1.59028e-015
lhumerus 1.00073 -24.8009 90.7332
lradius 120.305
lwrist -15.9027
lhand -7.61004 7.35729
lfingers 7.12502
lthumb 18.284 36.518
rfemur -35.5991 -10.0283 11.8848
rtibia 54.7268
rfoot -3.64226 -8.06812
rtoes -1.31921
lfemur -5.55571 4.61913 -11.2528
ltibia 38.8698
lfoot -2.35968 -14.3272
ltoes -29.3997
4759
root -0.80643 18.0146 -4.80339 4.18765 23.7756 -0.247957
lowerback 11.914 -5.6617 -3.24285
upperback 0.782541 -7.70985 3.92939
thorax -4.83471 -3.70598 7.14027
lowerneck -19.44 -9.43833 -12.9172
upperneck 20.6414 -12.1539 11.3273
head 11.4692 -5.26182 4.27071
rclavicle 5.12864e-014 6.36111e-015
rhumerus -15.2876 11.3591 -72.6404
rradius 130.473
rwrist 21.7249
rhand -18.0329 21.3251
rfingers 7.12502
rthumb 8.23856 -8.49429
lclavicle 5.12864e-014 6.36111e-015
lhumerus 0.78052 -24.7824 91.1612
lradius 120.214
lwrist -16.1395
lhand -7.79865 7.54071
lfingers 7.12502
lthumb 18.1026 36.7183
rfemur -34.8046 -10.5905 12.4833
rtibia 54.9175
rfoot -3.06921 -7.25271
rtoes -1.58232
lfemur -6.07592 4.07079 -10.9723
ltibia 39.6841
lfoot -2.19758 -13.6396
ltoes -28.1701
4760
root -0.74542 18.0423 -4.84335 3.90779 24.2135 -0.414037
lowerback 12.0509 -5.80755 -3.0766
upperback 0.674672 -7.87693 4.02152
thorax -5.0106 -3.78155 7.19532
lowerneck -19.1102 -9.47415 -13.0231
upperneck 20.5655 -12.2167 11.3641
head 11.3971 -5.30755 4.2977
rclavicle -7.79236e-014 1.11319e-014
rhumerus -15.8014 11.254 -72.5923
rradius 130.294
rwrist 21.6073
rhand -18.4182 21.5841
rfingers 7.12502
rthumb 7.86675 -8.24953
lclavicle -7.79236e-014 1.11319e-014
lhumerus 0.22029 -24.7571 91.5334
lradius 120.19
lwrist -16.3899
lhand -8.00369 7.67823
lfingers 7.12502
lthumb 17.9053 36.874
rfemur -34.1046 -11.0856 13.1307
rtibia 55.0633
rfoot -2.49117 -6.5366
rtoes -1.73565
lfemur -6.42247 3.47108 -10.6449
ltibia 40.4209
lfoot -3.11524 -9.05524
ltoes -30.0781
